<?xml version="1.0" encoding="utf-8"?>
<!-- Generator: Adobe Illustrator 16.0.0, SVG Export Plug-In . SVG Version: 6.00 Build 0)  -->
<!DOCTYPE svg PUBLIC "-//W3C//DTD SVG 1.1//EN" "http://www.w3.org/Graphics/SVG/1.1/DTD/svg11.dtd">
<svg version="1.1" id="Layer_1" xmlns="http://www.w3.org/2000/svg" xmlns:xlink="http://www.w3.org/1999/xlink" x="0px" y="0px"
	 width="100px" height="100px" viewBox="15 0 100 100" enable-background="new 15 0 100 100" xml:space="preserve">
<g>
	<title>Square Avatar 02</title>
	<desc>Created with Sketch.</desc>
	
		<linearGradient id="SVGID_1_" gradientUnits="userSpaceOnUse" x1="2500.1318" y1="-1961.5459" x2="2029.1371" y2="-1463.5514" gradientTransform="matrix(0.1667 0 0 -0.1667 -315.5833 -238.7498)">
		<stop  offset="0" style="stop-color:#8C2CE2"/>
		<stop  offset="1" style="stop-color:#5507E0"/>
	</linearGradient>
	<path fill="url(#SVGID_1_)" d="M111,100H19c-2.2,0-4-1.8-4-4V4c0-2.2,1.8-4,4-4h92c2.199,0,4,1.8,4,4v92
		C115,98.2,113.199,100,111,100z"/>
	<g>
		<path fill="#FFFFFF" d="M92.441,20.833h-54.9c-0.949,0-1.717,0.767-1.717,1.716v44.434c0,0.95,0.768,1.717,1.717,1.717h18.917
			v7.066h-5.134c-0.949,0-1.717,0.767-1.717,1.717s0.768,1.683,1.717,1.683h27.451c0.949,0,1.717-0.766,1.717-1.716
			s-0.768-1.717-1.717-1.717h-5.234v-7.067h18.918c0.949,0,1.717-0.766,1.717-1.716v-44.4C94.158,21.6,93.393,20.833,92.441,20.833z
			 M70.125,75.75h-10.25v-7.066h10.25V75.75z M90.742,65.267H39.241V24.25h51.501V65.267z"/>
		<g>
			<g>
				<path fill="#FFFFFF" d="M80.275,30.316h-7.566c-3.1,0-5.85,1.483-7.568,3.8c-1.732-2.3-4.482-3.8-7.566-3.8h-7.583
					c-1.05,0-1.899,0.85-1.899,1.9v22.717c0,1.05,0.85,1.9,1.899,1.9h11.366c1.051,0,1.9,0.85,1.9,1.899s0.85,1.899,1.9,1.899
					s1.9-0.85,1.9-1.899s0.85-1.899,1.9-1.899h11.367c1.049,0,1.898-0.851,1.898-1.9V32.217
					C82.176,31.167,81.326,30.316,80.275,30.316z M63.242,53.367c-0.602-0.217-1.234-0.317-1.9-0.317h-9.467V34.1h5.683
					c3.134,0,5.685,2.55,5.685,5.683V53.367z M78.393,53.05h-9.467c-0.668,0-1.301,0.116-1.9,0.317V39.783
					c0-3.133,2.551-5.683,5.684-5.683h5.684V53.05L78.393,53.05z"/>
			</g>
		</g>
	</g>
</g>
</svg>
